<svg xmlns="http://www.w3.org/2000/svg" viewBox="0 0 300 200"><g fill="#2ea7e0"><path d="M14.895 140.541V53.975h11.456v86.566H14.895zM42.649 112.729l10.806-.945c.511 4.33 1.703 7.883 3.572 10.658 1.869 2.775 4.773 5.019 8.71 6.732 3.936 1.712 8.364 2.569 13.286 2.569 4.37 0 8.228-.65 11.574-1.949s5.836-3.08 7.47-5.344c1.634-2.264 2.451-4.734 2.451-7.411 0-2.716-.787-5.088-2.362-7.115s-4.173-3.729-7.794-5.108c-2.323-.905-7.461-2.312-15.412-4.222-7.952-1.909-13.522-3.71-16.711-5.403-4.133-2.164-7.214-4.851-9.241-8.06-2.028-3.208-3.041-6.8-3.041-10.776 0-4.37 1.24-8.453 3.72-12.253 2.48-3.799 6.102-6.682 10.865-8.651 4.762-1.968 10.058-2.952 15.884-2.952 6.416 0 12.076 1.033 16.977 3.1s8.67 5.108 11.308 9.123 4.055 8.562 4.252 13.64l-10.983.827c-.59-5.471-2.588-9.605-5.993-12.4-3.405-2.795-8.435-4.192-15.087-4.192-6.929 0-11.978 1.27-15.146 3.809-3.169 2.539-4.753 5.601-4.753 9.182 0 3.11 1.122 5.669 3.366 7.676 2.205 2.008 7.962 4.065 17.272 6.171 9.31 2.106 15.697 3.947 19.161 5.521 5.039 2.323 8.759 5.265 11.16 8.828 2.401 3.563 3.602 7.667 3.602 12.312 0 4.606-1.319 8.946-3.956 13.02-2.638 4.074-6.427 7.243-11.367 9.507-4.94 2.264-10.501 3.395-16.681 3.395-7.834 0-14.399-1.142-19.693-3.425-5.295-2.283-9.448-5.718-12.459-10.304s-4.601-9.773-4.757-15.56zM184.012 53.975h11.456v50.015c0 8.7-.984 15.609-2.952 20.726-1.968 5.118-5.521 9.281-10.658 12.489s-11.879 4.813-20.224 4.813c-8.109 0-14.743-1.397-19.9-4.192s-8.838-6.84-11.042-12.135c-2.204-5.295-3.307-12.528-3.307-21.701V53.975h11.456v49.956c0 7.519.699 13.06 2.096 16.622 1.398 3.563 3.799 6.308 7.204 8.237 3.405 1.929 7.568 2.893 12.489 2.893 8.424 0 14.428-1.909 18.01-5.728s5.373-11.16 5.373-22.025V53.975zM205.742 140.541l33.481-45.114-29.525-41.453h13.64l15.707 22.203c3.267 4.606 5.59 8.149 6.968 10.629 1.929-3.149 4.212-6.436 6.85-9.861l17.42-22.97h12.459l-30.41 40.803 32.772 45.763h-14.172l-21.789-30.883c-1.22-1.771-2.48-3.7-3.779-5.787-1.929 3.15-3.307 5.314-4.133 6.495l-21.73 30.174h-13.759z"/></g></svg>